<?xml version="1.0" standalone="no"?>
<!DOCTYPE svg PUBLIC "-//W3C//DTD SVG 20010904//EN"
 "http://www.w3.org/TR/2001/REC-SVG-20010904/DTD/svg10.dtd">
<svg version="1.0" xmlns="http://www.w3.org/2000/svg"
 width="16.000000pt" height="16.000000pt" viewBox="0 0 16.000000 16.000000"
 preserveAspectRatio="xMidYMid meet">

<g transform="translate(0.000000,16.000000) scale(0.100000,-0.100000)" stroke="none">
<path d="M35 99 c-22 -23 -34 -39 -27 -35 8 5 12 -1 12 -18 0 -14 4 -27 9 -30
16 -10 41 5 41 25 0 10 5 19 10 19 6 0 10 -9 10 -19 0 -20 25 -35 41 -25 5 3
9 16 9 30 0 17 4 23 13 18 6 -4 2 4 -10 18 -13 13 -23 30 -23 37 0 7 -5 9 -11
6 -7 -5 -2 -17 13 -34 20 -23 19 -22 -10 3 l-32 30 -32 -30 -33 -29 30 33 c16
18 35 30 43 27 7 -2 10 0 7 5 -10 17 -19 12 -60 -31z"/>
</g>
</svg>
